<?xml version="1.0" encoding="UTF-8"?>
<svg xmlns="http://www.w3.org/2000/svg" xmlns:xlink="http://www.w3.org/1999/xlink" viewBox="0 0 1042.0117 618.31838">
  <defs>
    <style>
      .e {
        stroke: #000;
      }

      .e, .f {
        fill: none;
        stroke-width: 2px;
      }

      .g, .h {
        fill: #8cbcb1;
      }

      .h {
        opacity: .3;
      }

      .i {
        fill: #fff;
      }

      .j {
        fill: #c3c4d9;
      }

      .f {
        stroke: #080717;
        stroke-miterlimit: 10;
      }

      .k {
        clip-path: url(#c);
      }

      .l {
        fill: #08342e;
      }
    </style>
    <clipPath id="c">
      <rect class="j" width="1044.9792" height="618.31838"/>
    </clipPath>
  </defs>
  <g id="b" data-name="Layer 1">
    <g>
      <rect class="j" width="1044.9792" height="618.31838"/>
      <g class="k">
        <rect class="i" width="1044.9792" height="618.31838"/>
      </g>
    </g>
  </g>
  <g id="d" data-name="Layer 2">
    <rect class="h" width="1042.0117" height="618.31838"/>
    <g>
      <g>
        <path class="g" d="M642.06469,485.128h.0336c101.91273,0,184.81659-82.93746,184.81659-184.86524,0-96.27779-73.98894-175.50996-168.06578-184.02453v-33.13322l-82.21694,68.68055,82.21694,65.32697v-33.38803c57.02537,8.18801,101.06191,57.25482,101.06191,116.53825,0,64.99031-52.85416,117.86138-117.81272,117.86138h-.01691c-31.47323,0-61.06546-12.23655-83.31247-34.51531-22.1163-22.10125-34.33615-51.46403-34.48356-82.74141h-67.00387c.1474,49.15732,19.33563,95.35317,54.0973,130.14658,34.90886,34.89216,81.31747,54.114,130.6859,54.114Z"/>
        <g>
          <path class="f" d="M589.39566,326.74385h31.16523c6.55255,0,11.87598,5.31787,11.87598,11.88031v194.65552c0,6.56141-5.32343,11.87392-11.87598,11.87392h-289.20034c-6.55461,0-11.87392-5.31251-11.87392-11.87392v-194.65552c0-6.56245,5.31931-11.88031,11.87392-11.88031h31.60538"/>
          <path class="f" d="M588.33353,324.41447h31.10462c6.55461,0,12.88183-1.76761,14.11074-3.94691l38.77991-64.75488c.15812-.28388.20162-.55704.16019-.82793-.10823-2.32691-4.77484-5.91531-11.35584-5.91531h-369.80099c-7.41965,0-12.97501,3.73271-11.73744,5.90645l16.43889,27.3917,22.88094,38.19998c1.23757,2.1793,7.5516,3.94691,14.11074,3.94691h29.37474"/>
          <path class="f" d="M526.72937,522.8798c0,2.85014-2.32794,5.16304-5.17417,5.16304h-91.17619c-2.84808,0-5.18056-2.3129-5.18056-5.16304v-57.96051c0-2.84602,2.33248-5.1719,5.18056-5.1719h91.17619c2.84623,0,5.17417,2.32588,5.17417,5.1719v57.96051Z"/>
          <polygon class="l" points="304.81658 261.50986 334.86319 311.74848 617.07103 311.74848 647.10486 261.50986 304.81658 261.50986"/>
          <path class="f" d="M588.20344,323.16824c0-.46695-.32058-.83123-.69805-.83123h-223.08522c-.37706,0-.69785.36428-.69785.83123v13.54607c0,.45108.32078.82814.69785.82814h223.08522c.37748,0,.69805-.37706.69805-.82814v-13.54607Z"/>
          <g>
            <line class="f" x1="348.92218" y1="353.26803" x2="363.94332" y2="353.26803"/>
            <line class="f" x1="370.654" y1="353.26803" x2="385.6774" y2="353.26803"/>
            <line class="f" x1="392.38828" y1="353.26803" x2="407.41169" y2="353.26803"/>
            <line class="f" x1="414.1201" y1="353.26803" x2="429.1435" y2="353.26803"/>
            <line class="f" x1="435.85006" y1="353.26803" x2="450.87326" y2="353.26803"/>
            <line class="f" x1="457.58208" y1="353.26803" x2="472.60528" y2="353.26803"/>
            <line class="f" x1="479.31616" y1="353.26803" x2="494.33936" y2="353.26803"/>
            <line class="f" x1="501.05024" y1="353.26803" x2="516.07138" y2="353.26803"/>
            <line class="f" x1="522.77999" y1="353.26803" x2="537.8034" y2="353.26803"/>
            <line class="f" x1="544.51201" y1="353.26803" x2="559.53542" y2="353.26803"/>
            <line class="f" x1="566.24176" y1="353.26803" x2="581.26517" y2="353.26803"/>
            <line class="f" x1="587.97605" y1="353.26803" x2="602.99925" y2="353.26803"/>
          </g>
          <g>
            <line class="f" x1="348.92218" y1="370.60207" x2="363.94332" y2="370.60207"/>
            <line class="f" x1="370.654" y1="370.60207" x2="385.6774" y2="370.60207"/>
            <line class="f" x1="392.38828" y1="370.60207" x2="407.41169" y2="370.60207"/>
            <line class="f" x1="414.1201" y1="370.60207" x2="429.1435" y2="370.60207"/>
            <line class="f" x1="435.85006" y1="370.60207" x2="450.87326" y2="370.60207"/>
            <line class="f" x1="457.58208" y1="370.60207" x2="472.60528" y2="370.60207"/>
            <line class="f" x1="479.31616" y1="370.60207" x2="494.33936" y2="370.60207"/>
            <line class="f" x1="501.05024" y1="370.60207" x2="516.07138" y2="370.60207"/>
            <line class="f" x1="522.77999" y1="370.60207" x2="537.8034" y2="370.60207"/>
            <line class="f" x1="544.51201" y1="370.60207" x2="559.53542" y2="370.60207"/>
            <line class="f" x1="566.24176" y1="370.60207" x2="581.26517" y2="370.60207"/>
            <line class="f" x1="587.97605" y1="370.60207" x2="602.99925" y2="370.60207"/>
          </g>
          <g>
            <line class="f" x1="348.92218" y1="387.9361" x2="363.94332" y2="387.9361"/>
            <line class="f" x1="370.654" y1="387.9361" x2="385.6774" y2="387.9361"/>
            <line class="f" x1="392.38828" y1="387.9361" x2="407.41169" y2="387.9361"/>
            <line class="f" x1="414.1201" y1="387.9361" x2="429.1435" y2="387.9361"/>
            <line class="f" x1="435.85006" y1="387.9361" x2="450.87326" y2="387.9361"/>
            <line class="f" x1="457.58208" y1="387.9361" x2="472.60528" y2="387.9361"/>
            <line class="f" x1="479.31616" y1="387.9361" x2="494.33936" y2="387.9361"/>
            <line class="f" x1="501.05024" y1="387.9361" x2="516.07138" y2="387.9361"/>
            <line class="f" x1="522.77999" y1="387.9361" x2="537.8034" y2="387.9361"/>
            <line class="f" x1="544.51201" y1="387.9361" x2="559.53542" y2="387.9361"/>
            <line class="f" x1="566.24176" y1="387.9361" x2="581.26517" y2="387.9361"/>
            <line class="f" x1="587.97605" y1="387.9361" x2="602.99925" y2="387.9361"/>
          </g>
          <g>
            <line class="f" x1="348.92218" y1="405.26787" x2="363.94332" y2="405.26787"/>
            <line class="f" x1="370.654" y1="405.26787" x2="385.6774" y2="405.26787"/>
            <line class="f" x1="392.38828" y1="405.26787" x2="407.41169" y2="405.26787"/>
            <line class="f" x1="414.1201" y1="405.26787" x2="429.1435" y2="405.26787"/>
            <line class="f" x1="435.85006" y1="405.26787" x2="450.87326" y2="405.26787"/>
            <line class="f" x1="457.58208" y1="405.26787" x2="472.60528" y2="405.26787"/>
            <line class="f" x1="479.31616" y1="405.26787" x2="494.33936" y2="405.26787"/>
            <line class="f" x1="501.05024" y1="405.26787" x2="516.07138" y2="405.26787"/>
            <line class="f" x1="522.77999" y1="405.26787" x2="537.8034" y2="405.26787"/>
            <line class="f" x1="544.51201" y1="405.26787" x2="559.53542" y2="405.26787"/>
            <line class="f" x1="566.24176" y1="405.26787" x2="581.26517" y2="405.26787"/>
            <line class="f" x1="587.97605" y1="405.26787" x2="602.99925" y2="405.26787"/>
          </g>
          <g>
            <line class="f" x1="348.92218" y1="422.60191" x2="363.94332" y2="422.60191"/>
            <line class="f" x1="370.654" y1="422.60191" x2="385.6774" y2="422.60191"/>
            <line class="f" x1="392.38828" y1="422.60191" x2="407.41169" y2="422.60191"/>
            <line class="f" x1="414.1201" y1="422.60191" x2="429.1435" y2="422.60191"/>
            <line class="f" x1="435.85006" y1="422.60191" x2="450.87326" y2="422.60191"/>
            <line class="f" x1="457.58208" y1="422.60191" x2="472.60528" y2="422.60191"/>
            <line class="f" x1="479.31616" y1="422.60191" x2="494.33936" y2="422.60191"/>
            <line class="f" x1="501.05024" y1="422.60191" x2="516.07138" y2="422.60191"/>
            <line class="f" x1="522.77999" y1="422.60191" x2="537.8034" y2="422.60191"/>
            <line class="f" x1="544.51201" y1="422.60191" x2="559.53542" y2="422.60191"/>
            <line class="f" x1="566.24176" y1="422.60191" x2="581.26517" y2="422.60191"/>
            <line class="f" x1="587.97605" y1="422.60191" x2="602.99925" y2="422.60191"/>
          </g>
          <g>
            <line class="f" x1="348.92218" y1="439.92934" x2="363.94332" y2="439.92934"/>
            <line class="f" x1="370.654" y1="439.92934" x2="385.6774" y2="439.92934"/>
            <line class="f" x1="392.38828" y1="439.92934" x2="407.41169" y2="439.92934"/>
            <line class="f" x1="414.1201" y1="439.92934" x2="429.1435" y2="439.92934"/>
            <line class="f" x1="435.85006" y1="439.92934" x2="516.27094" y2="439.92934"/>
            <line class="f" x1="522.77999" y1="439.92934" x2="537.8034" y2="439.92934"/>
            <line class="f" x1="544.51201" y1="439.92934" x2="559.53542" y2="439.92934"/>
            <line class="f" x1="566.24176" y1="439.92934" x2="581.26517" y2="439.92934"/>
            <line class="f" x1="587.97605" y1="439.92934" x2="602.99925" y2="439.92934"/>
          </g>
        </g>
        <path class="j" d="M535.18436,70.31781h-165.95451c-18.51203,0-33.65377,15.14587-33.65377,33.65665v95.36245c0,18.51079,15.14174,33.65604,33.65377,33.65604h108.25582l47.83007,47.82739v-47.82739h9.86861c18.51223,0,33.65954-15.14525,33.65954-33.65604v-95.36245c0-18.51079-15.14731-33.65665-33.65954-33.65665Z"/>
      </g>
      <g>
        <line class="e" x1="381.03306" y1="121.81442" x2="401.87942" y2="121.81442"/>
        <line class="e" x1="409.14178" y1="121.81442" x2="518.39726" y2="121.81442"/>
        <line class="e" x1="381.03306" y1="147.62529" x2="454.57607" y2="147.62529"/>
        <line class="e" x1="463.80312" y1="147.62529" x2="500.72884" y2="147.62529"/>
        <line class="e" x1="509.95609" y1="147.62529" x2="536.01394" y2="147.62529"/>
        <line class="e" x1="381.03306" y1="173.37493" x2="482.54007" y2="173.37493"/>
      </g>
    </g>
  </g>
</svg>