<?xml version="1.0" encoding="UTF-8"?>
<svg id="c" xmlns="http://www.w3.org/2000/svg" version="1.1" viewBox="0 0 1042 618.3">
  <!-- Generator: Adobe Illustrator 30.1.0, SVG Export Plug-In . SVG Version: 2.1.1 Build 136)  -->
  <defs>
    <style>
      .st0 {
        stroke: #282d33;
      }

      .st0, .st1, .st2, .st3, .st4 {
        stroke-width: 2px;
      }

      .st0, .st2, .st4 {
        fill: none;
      }

      .st1, .st2 {
        stroke: #000;
      }

      .st1, .st2, .st3, .st4 {
        stroke-linecap: round;
        stroke-linejoin: round;
      }

      .st1, .st5, .st3, .st6 {
        fill: #fff;
      }

      .st7, .st8 {
        fill: #8cbcb1;
      }

      .st8 {
        opacity: .3;
      }

      .st8, .st6 {
        isolation: isolate;
      }

      .st3, .st4 {
        stroke: #080717;
      }

      .st9 {
        fill: #c3c4d9;
      }

      .st10 {
        fill: #08342e;
      }
    </style>
  </defs>
  <rect class="st6" width="1042" height="618.3"/>
  <rect class="st8" width="1042" height="618.3"/>
  <g>
    <polygon class="st9" points="543.7 108.9 501.8 152.4 460 195.9 444.2 170.3 428.4 144.7 486 126.8 543.7 108.9"/>
    <polygon class="st7" points="517.2 433.8 368.8 430.1 389 358.9 517.2 433.8"/>
    <circle class="st9" cx="373.3" cy="190.8" r="112.6"/>
    <path class="st2" d="M267,237.9c12.4-5.2,26.6-6.1,40.2-1.9l111.4,34.3c8.7,2.7,15.7,9,19.3,17.4"/>
    <path d="M563.4,539.4c12.7,2,92.2-.7,235.9-1.3-10.4-13.3-32.7-30.2-45.6-40.2-20.1-15.6-18.4-29.8,0-64.1,18.4-34.3,39.6-49.1,15.5-86.3-19.4-30-82.7-42.8-105.6-39.8-74.7,9.6-95.7,91.2-91.6,115,4.1,23.7,34.6,28.1,25.7,52.3-5.6,15.2-23.2,39-34.2,64.5Z"/>
    <path class="st5" d="M782.1,538.7c-11-21.8-32-37-70.2-45.3-78-16.9-122.6,13.6-141.1,43.9-2.3,3.8,134.4-1.3,211.3,1.3Z"/>
    <g>
      <path class="st10" d="M378.8,234.6l-21.7-8c-24.9-9.2-37.8-37.2-28.6-62.1l3.2-8.6c11.5-31.2,46.5-47.3,77.7-35.8l-.8,9.5c19.6,7.2,29.7,29.2,22.4,48.7l-14.3,38.8c-5.6,15.2-22.7,23.1-37.9,17.5h0Z"/>
      <ellipse class="st10" cx="385.8" cy="181.6" rx="51" ry="54.3" transform="translate(10.9 384.7) rotate(-53.7)"/>
      <path class="st10" d="M370.4,179.4c7.4-15.8,23.8-26.2,40.5-24.3h0c10.4,1.2,18.7,6.9,23.7,15.1-4.1-2.4-16-8.6-23.3-3.1-8.9,6.7-21.3,23-40.9,12.3h0Z"/>
      <path class="st10" d="M458.5,182.5c-4.6,12.6-18.6,19-31.2,14.3s-19-18.6-14.3-31.2c4.6-12.6,18.6-19,31.2-14.3,12.6,4.6,19,18.6,14.3,31.2Z"/>
      <path class="st10" d="M397.8,123.8c-25.8-6-52.5,7.5-62.8,32.4,4.2,5.7,10.1,10.4,17.4,13.1,18.9,7,39.7-1.9,46.3-19.9,3.2-8.6,2.6-17.7-1-25.6Z"/>
      <path class="st10" d="M425,151.7c-4.6,12.6-18.6,19-31.2,14.3-12.6-4.6-19-18.6-14.3-31.2,4.6-12.6,18.6-19,31.2-14.3,12.6,4.6,19,18.6,14.3,31.2h0Z"/>
      <circle class="st10" cx="427.7" cy="154" r="25" transform="translate(-23.7 99.9) rotate(-13)"/>
      <path class="st4" d="M359.8,118.4s7.8,4.8,7.1,12.7"/>
      <path class="st4" d="M367.3,116.3s-4,8.2.8,14.5"/>
      <path class="st3" d="M443.2,206.1l1.4-8.7c3.4-20.6-11-38.1-31.9-38.7h0c-17.3-2.8-33.8,6.7-40.6,22-6.7-2.4-14.4.1-18.2,6.5h0c-3.3,5.5-2.7,12.3,1.1,17.1l-39.3,35.5,24.1,42.7c6.2,10.9,21.1,12.8,29.8,3.7h0l15.9-21.6c3,1.4,6.2,2.4,9.5,2.9,20.6,3.3,39.9-10.6,43.3-31.2l2.3-14.3c4.1.2,7.8-2.6,8.5-6.8h0c.7-4.2-1.9-8.2-5.9-9.3h0Z"/>
      <path class="st4" d="M358.8,208.1c-7.2-4.3-9.6-13.6-5.3-20.8h0"/>
      <path class="st4" d="M365.2,189.5s4.3,4.4,1.7,10.2"/>
      <path class="st4" d="M430.6,224.5s-7.1,1.3-9.5-8.1"/>
      <path class="st10" d="M434.3,190.1c.2,1.3-2.6,2.8-6.2,3.4-3.6.6-6.7,0-6.9-1.4-.2-1.3,2.6-2.8,6.2-3.4,3.6-.6,6.7,0,6.9,1.4Z"/>
      <path class="st10" d="M400.3,156.9c-15.2-5-32,1.6-39.5,16,2.2,3.7,5.5,6.8,9.7,8.8,11,5.3,24,1.1,29-9.4,2.4-5,2.5-10.5.8-15.4h0Z"/>
      <path class="st4" d="M386,265c-14.6-7.1-23.6-23.1-20.8-40"/>
      <path class="st10" d="M366.4,238c-.3-1.6-.6-3.2-.8-4.8-5.2,16.8-.9,34.3,9.8,46.7l9.6-13.1c-9.2-6.9-16-16.9-18.6-28.8h0Z"/>
      <path class="st4" d="M434.4,206s-7.8,3.9-15.8-5.2"/>
    </g>
    <path class="st2" d="M810.9,540h-309.3c-8.6,0-15.6-7-15.6-15.6v-162.3c0-8.6,7-15.6,15.6-15.6h27.4v-85l49.7,85h232.2c8.6,0,15.6,7,15.6,15.6v162.3c0,8.6-7,15.6-15.6,15.6Z"/>
    <path class="st2" d="M585.3,86.2h208.6c8.6,0,15.6,7,15.6,15.6v162.3c0,8.6-7,15.6-15.6,15.6h-27.4v39.7l-49.7-39.7h-131.5c-8.6,0-15.6-7-15.6-15.6V101.7c0-8.6,7-15.6,15.6-15.6Z"/>
    <path class="st1" d="M711,416.3l7.3,83.9c-9.7,10.1-21.4,16.2-34.2,16.6-12.7.4-24.8-4.8-35.2-14.3l-2.7-78.2"/>
    <path class="st5" d="M686.3,422c-6.9,12.6-2.2,28.4,10.4,35.3,12.6,6.9,28.4,2.2,35.3-10.4,6.9-12.6,2.2-28.4-10.4-35.3-12.6-6.9-28.4-2.2-35.3,10.4Z"/>
    <path class="st1" d="M661.1,439.5s-49.7,5-56.1-19.5c-2.9-11.1,4.9-29.4,17.7-49.7.5-.7-11.4-3.3-5.3-9.5,19.1-19.3,50.7-39.3,77.3-43.9,0,0-25.1,77.8,6.6,98.8"/>
    <path class="st2" d="M690.7,319.7c-16.9,28.4-19.3,65-6.4,95.4"/>
    <path class="st2" d="M722.7,429.5c-7.3-1.9-15.2,3.6-19.2,9.3"/>
    <path class="st2" d="M657.5,396.9l-27-3.6s12.1,39.6,27,3.6Z"/>
    <path d="M651.3,354.9c-3.1,2-4.5,5.4-3.1,7.7,1.4,2.3,5.1,2.5,8.2.5s4.5-5.4,3.1-7.7-5.1-2.5-8.2-.5Z"/>
    <path class="st2" d="M669.6,356.8c0-3.5-.7-7.1-2.2-10.3"/>
    <rect class="st7" x="235.5" y="335.8" width="190.4" height="210.6" rx="7.8" ry="7.8"/>
    <path class="st4" d="M238.3,540.3c1.7-3.7,3.4-7.6,5.2-11.6,13.8-30.1,39.3-53.1,70.6-63.9l33.5-11.5s54.9-12.2,77.4,11.6"/>
    <g>
      <path class="st5" d="M336,546.4l-22,.3s.7-21.3,20.7-27.9c19.9-6.6,52-10.7,59.8,5.5,7.7,16.1,26.8,39,13.7,39.1-9.8.1-28.9-27.2-28.9-27.2l3.8,42.2s-7.3,2.8-13.9,1.3c-2.8-.6-7.6-2-12.9-4.2-7.4-2.9-14.8-7.9-20.1-29.1h0Z"/>
      <path class="st4" d="M313.3,546.8c2.9-10.7,9-24.4,21.3-28.1,21-6.2,50.6-10.6,59.8,5.5l18.2,33.5c1.1,2,.1,4.4-2,5.2h0c-4.6,1.7-9.8.2-12.9-3.5l-19.8-24.2"/>
      <path class="st4" d="M376.5,524.4l6.8,54.3s-8.1,5.4-12.5-.6"/>
      <path class="st4" d="M361,525.8l9.6,55s-10.3.9-12.7-4.9-12-45.3-12-45.3"/>
      <path class="st4" d="M333.6,536.8s7.1,39,23.9,38.6"/>
    </g>
    <g>
      <path class="st5" d="M287.1,315.3s60.7,25.8,82.9,49.2c22.1,23.5,24.6,48.9-15.4,56.9,0,0-6.8-3.8-2.7,11,4.2,15.4,6.7,30.3,6.7,30.3,0,0,3.7,18.7-10.3,22.8-22.5,6.5-46-1.4-48.8-3,0,0-.7-24.1-7.3-36-6.6-12-15.5-23.7-15.5-23.7l-13.2.4s-17.8,1.6-22.6-23.9c-4.4-23.6-8-75.3,46.3-84.1Z"/>
      <path d="M321.3,337.9c1.6,1.5,3.7,1.7,4.7.6s.6-3.2-.9-4.7c-1.6-1.5-3.7-1.7-4.7-.6-1,1.1-.6,3.2.9,4.7h0Z"/>
      <path d="M298.6,358.4c1.6,1.5,3.7,1.7,4.7.6s.6-3.2-.9-4.7c-1.6-1.5-3.7-1.7-4.7-.6s-.6,3.2.9,4.7Z"/>
      <path class="st2" d="M296.2,342.6s-12.9-.2-13.8,11.3"/>
      <path class="st2" d="M325.5,323.1s-12.9-.2-13.8,11.3"/>
      <path class="st2" d="M308.2,321.5s57.7,34.9,69.4,52.2c11.7,17.3,24,57.4-71.1,47.7"/>
      <path class="st4" d="M324.1,347.4c5.7,4.4,11.4,8.8,17.1,13.3,0,0,4.8,4.5-1.4,8.8"/>
      <path class="st4" d="M354.5,377s-6.3,11.6-24.8,8.9"/>
      <path d="M287.9,385.3s-29.9-20.1-25.8-32.7c4.1-12.6,36.6-22.8,41.5-22,4.9.8-.6-6.1-.6-6.1h18.3s-8.9-20.1-24.5-20.3c-15.6-.2-9.3,1.9-9.3,1.9,0,0-3-14.3-23.8-7-20.8,7.4-44.7,32.3-45.8,41-1.1,8.7-6.1,39.8,3.5,57,9.6,17.2,25.7,11.7,25.7,11.7,0,0-5-12.6,11.9-18.4,16.9-5.8,21.6,6,21.6,6l7.4-11.2h0Z"/>
      <path class="st2" d="M279.6,405.9s-5.9-7.6-12.8-7.7c-7.4-.1-11.7,7.3-10.3,10.8"/>
      <path class="st2" d="M243.7,407.4s8.3,16.4,19.7,15.9c13.8-.6,13.2-.4,13.2-.4,0,0,22.5,21.5,22,53.9l.8,5.8s65.7,24.2,58.6-23.3c-2.5-16.9-8.7-37.3-8.7-37.3"/>
    </g>
    <g>
      <line class="st0" x1="570.1" y1="447.2" x2="507.8" y2="447.2"/>
      <line class="st0" x1="570.1" y1="460.4" x2="507.8" y2="460.4"/>
      <line class="st0" x1="570.1" y1="473" x2="507.8" y2="473"/>
      <line class="st0" x1="552.9" y1="486.2" x2="507.8" y2="486.2"/>
    </g>
    <path class="st2" d="M808,220.9l-103.3,16.1c-7.5,1.2-14.7,3.5-21.4,7l-61.4,31.8"/>
    <g>
      <path class="st3" d="M642.9,277.1l-12.5.4,7.8-8.5c3-3.3,7.1-5.4,11.6-5.9h0c3.9-.5,6,.9,9,5.6l14.8,24.9-5.9,1.3c-4.2.9-8.6-.5-11.5-3.6l-13.3-14.1Z"/>
      <path class="st3" d="M626.5,277.6l-12.5.4,7.8-8.5c3-3.3,7.1-5.4,11.6-5.9h0c3.9-.5,7.7,1.9,9,5.6l12,31.8-8.2.7c-4.2.3-8.3-1.8-10.3-5.6l-9.4-18.5h0Z"/>
      <path class="st3" d="M610.1,278l-12.5.4,7.8-8.5c3-3.3,7.1-5.4,11.6-5.9h0c3.9-.5,7.7,1.9,9,5.6l10.9,29.1-8.2.7c-4.2.3-8.3-1.8-10.3-5.6l-8.3-15.8h0Z"/>
      <path class="st3" d="M594.5,278.5l-12.5.4,7.8-8.5c3-3.3,7.1-5.4,11.6-5.9h0c3.9-.5,7.7,1.9,9,5.6l9.2,25.3-8.2.7c-4.2.3-8.3-1.8-10.3-5.6l-6.5-11.9h0Z"/>
    </g>
    <g>
      <path class="st3" d="M678.6,538l12.5.4-7.8-8.5c-3-3.3-7.1-5.4-11.6-5.9h0c-3.9-.5-6,.9-9,5.6l-14.8,24.9,5.9,1.3c4.2.9,8.6-.5,11.5-3.6l13.3-14.1h0Z"/>
      <path class="st3" d="M695,538.5l12.5.4-7.8-8.5c-3-3.3-7.1-5.4-11.6-5.9h0c-3.9-.5-7.7,1.9-9,5.6l-12,31.8,8.2.7c4.2.3,8.3-1.8,10.3-5.6l9.4-18.5h0Z"/>
      <path class="st3" d="M711.4,539l12.5.4-7.8-8.5c-3-3.3-7.1-5.4-11.6-5.9h0c-3.9-.5-7.7,1.9-9,5.6l-10.9,29.1,8.2.7c4.2.3,8.3-1.8,10.3-5.6l8.3-15.8h0Z"/>
      <path class="st3" d="M727,539.4l12.5.4-7.8-8.5c-3-3.3-7.1-5.4-11.6-5.9h0c-3.9-.5-7.7,1.9-9,5.6l-9.2,25.3,8.2.7c4.2.3,8.3-1.8,10.3-5.6l6.5-11.9h0Z"/>
    </g>
    <g>
      <circle class="st10" cx="708.4" cy="153.7" r="65.8" transform="translate(98.8 545.9) rotate(-45)"/>
      <path class="st3" d="M703,228.3c2.6-.3,5.1-.8,7.5-1.6l16.5,37.4h0c15.7,4.5,32.4-2.9,39.7-17.6l10.7-21.7-16.6-37.4c2.3.4,4.6.3,6.8-.4,10.4-3.2,15.2-17.7,10.3-31.9-4.5-13.2-16.1-21.4-25.8-18.5-7,2.1-11.5,9.4-12.2,18.2-6.8-25.9-27-43.8-48.7-41.6-24.8,2.5-42.3,30.4-39.1,62.2,3.2,31.8,26,55.5,50.8,53h0Z"/>
      <path class="st10" d="M741,144.4c-.4.4-.7.8-1.1,1.2-21.8,22-62.2,17.9-90.2-9.3-.3-.3-.6-.6-.9-.9,5.8-9.5,14.2-16.7,24.5-20.5,24.1-8.8,51.5,4.1,67.7,29.5h0Z"/>
      <path class="st4" d="M711.8,226.2c12.4-5.7,21.9-18.2,25.9-33.9"/>
      <path class="st10" d="M666.1,177.8c1.2,1,0,4.6-2.9,8.1-2.8,3.4-6.1,5.4-7.4,4.4-1.2-1,0-4.6,2.9-8.1,2.8-3.4,6.1-5.4,7.4-4.4Z"/>
      <path class="st10" d="M705.3,169.9c.3,2-3.9,4.2-9.4,5.1-5.5.8-10.1-.1-10.4-2.1-.3-2,3.9-4.2,9.4-5.1,5.5-.8,10.1.1,10.4,2.1h0Z"/>
      <path class="st4" d="M676.8,182.1l2,12.9c.4,2.4,2,4.2,4.1,5.1"/>
      <path class="st4" d="M695.6,203.6s-1.1,5.1-8.5,3.9"/>
      <path class="st4" d="M758.8,143.1s-13.2,4.9-7,20"/>
      <path class="st10" d="M668.7,195.8c.5,2.3-.2,4.4-1.7,4.8-1.5.4-3.1-1.2-3.7-3.5-.5-2.3.2-4.4,1.7-4.8s3.1,1.2,3.7,3.5h0Z"/>
      <path class="st10" d="M698.7,184c.5,2.3-.2,4.4-1.7,4.8-1.5.4-3.1-1.2-3.7-3.5s.2-4.4,1.7-4.8,3.1,1.2,3.7,3.5Z"/>
    </g>
    <circle class="st10" cx="736.4" cy="79.2" r="41.7"/>
  </g>
</svg>