<?xml version="1.0" encoding="UTF-8"?>
<svg id="c" data-name="Layer 2" xmlns="http://www.w3.org/2000/svg" viewBox="0 0 1042.0117 618.31838">
  <defs>
    <style>
      .d {
        stroke: #282d33;
      }

      .d, .e, .f, .g, .h {
        stroke-width: 2px;
      }

      .d, .f, .h {
        fill: none;
      }

      .e, .f {
        stroke: #000;
      }

      .e, .f, .g, .h {
        stroke-linecap: round;
        stroke-linejoin: round;
      }

      .e, .i, .g {
        fill: #fff;
      }

      .j, .k {
        fill: #8cbcb1;
      }

      .k {
        opacity: .3;
      }

      .g, .h {
        stroke: #080717;
      }

      .l {
        fill: #c3c4d9;
      }

      .m {
        fill: #08342e;
      }
    </style>
  </defs>
  <rect class="k" width="1042.0117" height="618.31838"/>
  <g>
    <polygon class="l" points="543.65751 108.88513 501.84875 152.3948 460.03999 195.90427 444.22718 170.30621 428.41438 144.70796 486.03594 126.79655 543.65751 108.88513"/>
    <polygon class="j" points="517.15055 433.78742 368.75355 430.1072 389.00075 358.86881 517.15055 433.78742"/>
    <circle class="l" cx="373.34611" cy="190.7774" r="112.60865" transform="translate(-25.54945 319.87297) rotate(-45)"/>
    <path class="f" d="M267.0191,237.89306c12.42374-5.15729,26.59319-6.10901,40.23451-1.9118l111.4494,34.29218c8.68517,2.67234,15.74749,9.04263,19.29807,17.40737"/>
    <path d="M563.41222,539.38252c12.69557,1.97991,92.16467-.66913,235.87138-1.33129-10.37492-13.31492-32.68945-30.18599-45.61026-40.22933-20.07533-15.60311-18.38538-29.77575-.00816-64.05917,18.37741-34.28382,39.58768-49.12021,15.52186-86.3032-19.39425-29.96533-82.65465-42.79413-105.58773-39.83861-74.71907,9.63011-95.70191,91.2022-91.63654,114.95079,4.06497,23.74839,34.6156,28.13777,25.66656,52.32906-5.62369,15.20282-23.22403,38.99582-34.21711,64.48176Z"/>
    <path class="i" d="M782.06541,538.71339c-10.98072-21.75334-32.00977-37.00276-70.162-45.26116-78.02529-16.88939-122.58088,13.62957-141.09351,43.93664-2.29994,3.76526,134.43525-1.32432,211.25551,1.32452Z"/>
    <g>
      <path class="m" d="M378.80127,234.55676l-21.68802-8.01743c-24.93112-9.21609-37.78859-37.15471-28.5725-62.08563l3.17698-8.59396c11.54013-31.21737,46.52355-47.31714,77.74091-35.77702l-.80276,9.47159c19.56811,7.23359,29.65984,29.16218,22.42625,48.73029l-14.34908,38.81559c-5.63066,15.2319-22.69988,23.08742-37.93178,17.45656Z"/>
      <ellipse class="m" cx="385.76935" cy="181.60801" rx="50.95867" ry="54.26007" transform="translate(10.86595 384.70134) rotate(-53.65494)"/>
      <path class="m" d="M370.41383,179.42591c7.36124-15.7674,23.84935-26.15885,40.48842-24.26517l.0004.0002c10.37193,1.18054,18.73229,6.9032,23.70298,15.08174-4.09524-2.43616-15.99343-8.61805-23.28278-3.10549-8.91279,6.7405-21.33991,22.9759-40.90902,12.28872Z"/>
      <path class="m" d="M458.48824,182.54355c-4.64648,12.56891-18.60205,18.99138-31.17096,14.3451s-18.99138-18.60205-14.3451-31.17077c4.64648-12.56891,18.60205-18.99138,31.17096-14.3451,12.56872,4.64628,18.99138,18.60205,14.3451,31.17077Z"/>
      <path class="m" d="M397.79066,123.78824c-25.77331-5.97379-52.53916,7.52494-62.77527,32.43674,4.18964,5.7392,10.13634,10.4022,17.42012,13.09466,18.92805,6.9972,39.66933-1.92993,46.32659-19.93912,3.1712-8.57822,2.56779-17.66686-.97144-25.59228Z"/>
      <path class="m" d="M425.03447,151.72328c-4.64628,12.56872-18.60185,18.99118-31.17077,14.3449-12.56891-4.64628-18.99138-18.60185-14.3451-31.17077,4.64628-12.56891,18.60205-18.99138,31.17096-14.3451,12.56872,4.64628,18.99118,18.60205,14.3449,31.17096Z"/>
      <circle class="m" cx="427.74256" cy="154.01864" r="24.95463" transform="translate(-23.65316 99.9137) rotate(-12.96764)"/>
      <path class="h" d="M359.84913,118.38341s7.78642,4.78568,7.13362,12.70035"/>
      <path class="h" d="M367.33702,116.32464s-4.01539,8.21.77229,14.54604"/>
      <path class="g" d="M443.23723,206.06212l1.41613-8.6993c3.36119-20.64708-10.99646-38.05366-31.90601-38.68117l-.001-.0002c-17.33548-2.82051-33.83136,6.66323-40.57804,22.03573-6.70764-2.4264-14.40604.14856-18.19798,6.50193h0c-3.30583,5.53905-2.66537,12.32237,1.0736,17.1214l-39.28478,35.45321,24.06184,42.72802c6.1578,10.93472,21.12842,12.81367,29.79745,3.73997h0l15.86757-21.56455c2.97624,1.35101,6.15501,2.37183,9.53532,2.92167,20.55289,3.34446,39.92563-10.60633,43.27009-31.15902l2.3326-14.33534c4.11117.21727,7.82904-2.6355,8.53839-6.79308l-.0002-.0004c.71454-4.1986-1.90643-8.15703-5.925-9.26886Z"/>
      <path class="h" d="M358.84184,208.11811c-7.20551-4.30016-9.56061-13.62718-5.26045-20.83269h0"/>
      <path class="h" d="M365.15657,189.52323s4.33402,4.36987,1.7497,10.24727"/>
      <path class="h" d="M430.57193,224.52576s-7.10195,1.33408-9.46024-8.14588"/>
      <path class="m" d="M434.32006,190.11847c.19915,1.30779-2.57536,2.81473-6.19703,3.36597-3.62147.55104-6.7186-.06213-6.91774-1.36993-.19895-1.30779,2.57556-2.81473,6.19703-3.36597,3.62167-.55124,6.7188.06213,6.91774,1.36993Z"/>
      <path class="m" d="M400.26904,156.93175c-15.16459-5.03243-32.00439,1.57385-39.53849,15.96157,2.20096,3.68162,5.51794,6.81538,9.74801,8.8409,10.99247,5.26343,23.95689,1.06464,28.95706-9.37799,2.38159-4.97388,2.52239-10.46613.83343-15.42447Z"/>
      <path class="h" d="M385.97173,265.0327c-14.6494-7.0673-23.5588-23.14378-20.81357-40.01604"/>
      <path class="m" d="M366.43011,238.00358c-.3489-1.59815-.6072-3.1953-.79141-4.78827-5.20568,16.80734-.94973,34.30712,9.7743,46.73285l9.64445-13.10721c-9.22167-6.94901-16.0249-16.91887-18.62734-28.83737Z"/>
      <path class="h" d="M434.38896,206.044s-7.84756,3.92517-15.83193-5.2019"/>
    </g>
    <path class="f" d="M810.88247,540.03791h-309.28644c-8.58977,0-15.55332-6.96335-15.55332-15.55332v-162.26833c0-8.58977,6.96355-15.55332,15.55332-15.55332h27.40451v-85.00796l49.66826,85.00796h232.21366c8.58977,0,15.55312,6.96355,15.55312,15.55332v162.26833c0,8.58997-6.96335,15.55332-15.55312,15.55332Z"/>
    <path class="f" d="M585.29122,86.17052h208.60667c8.58977,0,15.55312,6.96335,15.55312,15.55312v162.26853c0,8.58977-6.96335,15.55312-15.55312,15.55312h-27.40471v39.73465l-49.66826-39.73465h-131.53369c-8.58977,0-15.55312-6.96335-15.55312-15.55312V101.72364c0-8.58977,6.96335-15.55312,15.55312-15.55312Z"/>
    <path class="e" d="M710.99789,416.28406l7.28796,83.92002c-9.74323,10.12659-21.43769,16.19995-34.17847,16.63349-12.74098.43334-24.82119-4.83129-35.22996-14.27221l-2.6594-78.17664"/>
    <path class="i" d="M686.31173,421.9679c-6.89086,12.62507-2.24239,28.44585,10.38269,35.3369,12.62507,6.89086,28.44585,2.24239,35.3369-10.38269,6.89086-12.62507,2.24239-28.44585-10.38269-35.3369-12.62507-6.89086-28.44585-2.24239-35.3369,10.38269Z"/>
    <path class="e" d="M661.07651,439.51248s-49.71148,5.00913-56.11323-19.5012c-2.89519-11.08488,4.87371-29.40912,17.65192-49.7053.45326-.71991-11.37304-3.32295-5.29649-9.47359,19.08876-19.32176,50.70482-39.31983,77.30717-43.94062,0,0-25.13644,77.76262,6.64113,98.81596"/>
    <path class="f" d="M690.68518,319.68799c-16.90094,28.43012-19.34487,64.97624-6.38005,95.40359"/>
    <path class="f" d="M722.683,429.47909c-7.27421-1.93172-15.24325,3.60853-19.17101,9.29495"/>
    <path class="f" d="M657.5114,396.90694l-26.9634-3.62665s12.08997,39.63548,26.9634,3.62665Z"/>
    <path d="M651.29545,354.86657c-3.13177,1.97792-4.51684,5.40801-3.09354,7.66175,1.4231,2.25374,5.11587,2.47758,8.24764.49986,3.13177-1.97772,4.51684-5.40801,3.09354-7.66175s-5.11587-2.47758-8.24764-.49986Z"/>
    <path class="f" d="M669.55735,356.82836c.02788-3.54938-.73445-7.10255-2.2157-10.32792"/>
    <rect class="j" x="235.54325" y="335.75172" width="190.38539" height="210.59335" rx="7.81" ry="7.81"/>
    <path class="h" d="M238.26896,540.344c1.65968-3.74256,3.42193-7.63925,5.22201-11.56681,13.77733-30.06132,39.32799-53.12305,70.59355-63.89228l33.52647-11.54809s54.90123-12.20428,77.4175,11.63651"/>
    <g>
      <path class="i" d="M335.95676,546.42931l-21.9734.29573s.73126-21.32,20.66202-27.94997c19.93055-6.62998,52.03054-10.65771,59.75303,5.47772,7.72249,16.13523,26.80488,38.9528,13.67517,39.10893-9.83743.1169-28.9009-27.16872-28.9009-27.16872l3.75809,42.21542s-7.26904,2.78645-13.9022,1.25223c-2.77809-.64264-7.59325-2.03109-12.94769-4.15698-7.42955-2.94975-14.77964-7.86707-20.12412-29.07435Z"/>
      <path class="h" d="M313.31582,546.84772c2.90096-10.70929,8.96755-24.44918,21.32956-28.07265,21.02785-6.16377,50.63392-10.60892,59.75303,5.47772l18.20754,33.4727c1.07061,1.96836.13801,4.42802-1.96856,5.19174h0c-4.61163,1.67183-9.77629.24853-12.88058-3.54978l-19.7806-24.20224"/>
      <path class="h" d="M376.54136,524.37386l6.75345,54.28188s-8.09609,5.39487-12.45719-.63607"/>
      <path class="h" d="M361.00298,525.80174l9.58371,55.00319s-10.28829.92842-12.70414-4.91831-11.99597-45.26414-11.99597-45.26414"/>
      <path class="h" d="M333.57537,536.79621s7.08622,39,23.9085,38.59972"/>
    </g>
    <g>
      <path class="i" d="M287.13128,315.30597s60.74677,25.77331,82.85001,49.24727c22.10324,23.47396,24.61447,48.94855-15.4191,56.9383,0,0-6.77157-3.78637-2.71158,11.0319,4.21732,15.39201,6.65487,30.30488,6.65487,30.30488,0,0,3.68918,18.74145-10.30661,22.7887-22.50671,6.5083-46.01652-1.43863-48.76514-2.97724,0,0-.72947-24.05248-7.31683-36.04128-6.58756-11.9886-15.48521-23.68147-15.48521-23.68147l-13.23406.38814s-17.83693,1.60253-22.57581-23.88181c-4.38699-23.59086-8.00946-75.32188,46.30946-84.11737Z"/>
      <path d="M321.31612,337.90429c1.56031,1.46074,3.67086,1.74114,4.71419.62671s.62412-3.20187-.93619-4.66261c-1.56011-1.46054-3.67066-1.74114-4.71399-.62671-1.04333,1.11462-.62412,3.20207.93599,4.66261Z"/>
      <path d="M298.63775,358.38349c1.56031,1.46054,3.67086,1.74114,4.71419.62671s.62412-3.20207-.93599-4.66261c-1.56031-1.46054-3.67086-1.74114-4.71419-.62671s-.62412,3.20207.93599,4.66261Z"/>
      <path class="f" d="M296.16615,342.63541s-12.93913-.24216-13.81577,11.26789"/>
      <path class="f" d="M325.51532,323.0669s-12.93893-.24196-13.81577,11.26809"/>
      <path class="f" d="M308.17466,321.53985s57.67892,34.90297,69.39987,52.1554c11.72075,17.25244,24.01644,57.40151-71.11213,47.71882"/>
      <path class="h" d="M324.14081,347.44798c5.71291,4.42523,11.42681,8.84926,17.13972,13.27449,0,0,4.82014,4.47541-1.38666,8.76642"/>
      <path class="h" d="M354.53411,377.04549s-6.32966,11.64229-24.75487,8.91956"/>
      <path d="M287.85557,385.29293s-29.88329-20.07952-25.75678-32.67253c4.12631-12.59281,36.60347-22.75405,41.48535-21.95448,4.88167.79957-.61536-6.14545-.61536-6.14545l18.27406.04441s-8.93051-20.18646-24.52625-20.38182c-15.59554-.19536-9.29913,1.86799-9.29913,1.86799,0,0-2.95852-14.34311-23.77109-6.98924-20.81257,7.35367-44.66133,32.34433-45.78511,41.006-1.12358,8.66187-6.08292,39.84199,3.48526,57.03667,9.56798,17.19468,25.65003,11.71995,25.65003,11.71995,0,0-5.01072-12.61512,11.85976-18.4031,16.87047-5.78779,21.56793,6.03871,21.56793,6.03871l7.43134-11.16712Z"/>
      <path class="f" d="M279.61371,405.91034s-5.91484-7.58289-12.79435-7.6978c-7.35148-.12287-11.69646,7.3232-10.31856,10.79253"/>
      <path class="f" d="M243.69171,407.39856s8.27871,16.40208,19.70592,15.90661c13.75981-.59684,13.23406-.38814,13.23406-.38814,0,0,22.52822,21.47951,22.02956,53.93099l.77249,5.79157s65.69097,24.21777,58.60854-23.29174c-2.52378-16.93022-8.73157-37.30487-8.73157-37.30487"/>
    </g>
    <g>
      <line class="d" x1="570.05912" y1="447.22342" x2="507.8088" y2="447.22342"/>
      <line class="d" x1="570.05912" y1="460.3834" x2="507.8088" y2="460.3834"/>
      <line class="d" x1="570.05912" y1="473.00509" x2="507.8088" y2="473.00509"/>
      <line class="d" x1="552.88873" y1="486.16507" x2="507.8088" y2="486.16507"/>
    </g>
    <path class="f" d="M807.95183,220.88657l-103.34454,16.0946c-7.46559,1.16281-14.69321,3.52927-21.40085,7.00736l-61.39419,31.83392"/>
    <g>
      <path class="g" d="M642.93907,277.08483l-12.4791.36344,7.80693-8.52664c3.01547-3.29368,7.11848-5.3883,11.55486-5.89911h0c3.94807-.45445,6.02378.90412,9.04303,5.60039l14.7874,24.87058-5.89891,1.26219c-4.20457.89954-8.57384-.46082-11.52499-3.58802l-13.28923-14.08282Z"/>
      <path class="g" d="M626.52126,277.56298l-12.4789.36344,7.80673-8.52645c3.01567-3.29368,7.11868-5.3885,11.55506-5.89911h0c3.94787-.45465,7.69063,1.86321,9.04303,5.60019l12.03719,31.84607-8.20582.66077c-4.24679.34213-8.29802-1.8429-10.34525-5.57908l-9.41205-18.46583Z"/>
      <path class="g" d="M610.10364,278.04133l-12.4791.36344,7.80693-8.52664c3.01547-3.29368,7.11848-5.3885,11.55486-5.89911h0c3.94807-.45465,7.69083,1.86341,9.04303,5.60019l10.89031,29.14206-8.20582.66077c-4.24679.34193-8.29802-1.8429-10.34525-5.57928l-8.26497-15.76143Z"/>
      <path class="g" d="M594.50492,278.49559l-12.4791.36344,7.80693-8.52664c3.01547-3.29368,7.11848-5.3883,11.55486-5.89911h0c3.94787-.45445,7.69083,1.86341,9.04303,5.60019l9.15336,25.29516-8.20582.66077c-4.24659.34193-8.29802-1.8429-10.34505-5.57928l-6.52821-11.91452Z"/>
    </g>
    <g>
      <path class="g" d="M678.60835,538.03769l12.4791.36344-7.80693-8.52645c-3.01547-3.29368-7.11848-5.3885-11.55486-5.89911h0c-3.94807-.45465-6.02378.90392-9.04303,5.60019l-14.7874,24.87077,5.89891,1.26199c4.20457.89954,8.57384-.46063,11.52499-3.58802l13.28923-14.08282Z"/>
      <path class="g" d="M695.02617,538.51603l12.4789.36344-7.80673-8.52664c-3.01567-3.29368-7.11868-5.3885-11.55506-5.89911h0c-3.94787-.45465-7.69063,1.86341-9.04303,5.60019l-12.03719,31.84607,8.20582.66097c4.24679.34193,8.29802-1.8431,10.34525-5.57928l9.41205-18.46563Z"/>
      <path class="g" d="M711.44378,538.99418l12.4791.36344-7.80693-8.52664c-3.01547-3.29368-7.11848-5.3883-11.55486-5.89911h0c-3.94807-.45445-7.69083,1.86341-9.04303,5.60019l-10.89031,29.14206,8.20582.66077c4.24679.34193,8.29802-1.8429,10.34525-5.57928l8.26497-15.76143Z"/>
      <path class="g" d="M727.04251,539.44844l12.4791.36344-7.80693-8.52664c-3.01547-3.29368-7.11848-5.3883-11.55486-5.89911h0c-3.94787-.45445-7.69083,1.86341-9.04303,5.60039l-9.15336,25.29496,8.20582.66077c4.24659.34213,8.29802-1.8429,10.34505-5.57908l6.52821-11.91472Z"/>
    </g>
    <g>
      <circle class="m" cx="708.41302" cy="153.71275" r="65.81105" transform="translate(-9.5845 253.49338) rotate(-20.15413)"/>
      <path class="g" d="M703.04578,228.3428c2.59328-.26427,5.10073-.82048,7.51916-1.61328l16.54547,37.35864h0c15.72518,4.49493,32.41583-2.8918,39.66276-17.55354l10.72223-21.6932-16.56419-37.39966c2.28978.37997,4.59749.28976,6.83091-.40307,10.4255-3.23314,15.1604-17.67005,10.28949-31.91756-4.49752-13.15699-16.06732-21.43988-25.80995-18.49909-7.04281,2.12589-11.49671,9.35051-12.20129,18.18763-6.83091-25.88483-26.98989-43.84403-48.74124-41.62515-24.81362,2.53095-42.30025,30.36183-39.05656,62.1625,3.24369,31.80007,25.98898,55.52734,50.8032,52.9958Z"/>
      <path class="m" d="M740.99051,144.43134c-.37479.40666-.73923.82068-1.13135,1.21619-21.8334,22.02597-62.21448,17.86262-90.19452-9.29873-.31605-.30708-.61377-.62432-.92464-.93439,5.84853-9.46124,14.16288-16.74939,24.51908-20.52122,24.05607-8.76204,51.53247,4.13069,67.73142,29.53816Z"/>
      <path class="h" d="M711.75246,226.20815c12.41916-5.65874,21.85411-18.21312,25.93461-33.8909"/>
      <path class="m" d="M666.13722,177.77639c1.24546,1.02202-.03903,4.64668-2.8691,8.09569-2.83027,3.44901-6.1341,5.41658-7.37956,4.39456-1.24566-1.02202.03903-4.64648,2.8691-8.09549,2.83027-3.44921,6.1341-5.41658,7.37956-4.39476Z"/>
      <path class="m" d="M705.29255,169.89876c.29752,1.97593-3.89749,4.2458-9.36963,5.06947-5.47194.82387-10.14929-.11033-10.44661-2.08626-.29752-1.97613,3.89729-4.2458,9.36943-5.06967,5.47214-.82367,10.14929.11033,10.44681,2.08646Z"/>
      <path class="h" d="M676.80409,182.09666l2.03707,12.92559c.37619,2.38637,1.98967,4.24301,4.0594,5.05951"/>
      <path class="h" d="M695.5772,203.64249s-1.12239,5.11447-8.46989,3.86304"/>
      <path class="h" d="M758.80872,143.13311s-13.2494,4.88565-6.99521,20.04188"/>
      <path class="m" d="M668.69585,195.76248c.54646,2.2862-.2111,4.42642-1.69215,4.78051-1.48125.35408-3.1248-1.2122-3.67126-3.4984-.54666-2.286.2111-4.42642,1.69215-4.78051s3.1248,1.2122,3.67126,3.4984Z"/>
      <path class="m" d="M698.73407,183.98577c.54646,2.286-.2111,4.42642-1.69215,4.78051-1.48105.35388-3.1248-1.2122-3.67126-3.4984s.2111-4.42642,1.69215-4.78051,3.1248,1.2122,3.67126,3.4984Z"/>
    </g>
    <circle class="m" cx="736.37345" cy="79.16415" r="41.72131"/>
  </g>
</svg>