<?xml version="1.0" encoding="UTF-8"?>
<svg xmlns="http://www.w3.org/2000/svg" xmlns:xlink="http://www.w3.org/1999/xlink" viewBox="0 0 1042.0117 618.31838">
  <defs>
    <style>
      .e {
        stroke: #282d33;
      }

      .e, .f, .g, .h {
        fill: none;
        stroke-width: 2px;
      }

      .i, .j {
        fill: #8cbcb1;
      }

      .j {
        opacity: .3;
      }

      .k {
        fill: #1d1d1b;
      }

      .f {
        stroke: #080717;
      }

      .l {
        fill: #fff;
      }

      .g {
        stroke-miterlimit: 10;
      }

      .g, .h {
        stroke: #1d1d1b;
      }

      .m {
        fill: #c3c4d9;
      }

      .n {
        clip-path: url(#c);
      }

      .o {
        fill: #08342e;
      }
    </style>
    <clipPath id="c">
      <rect class="l" x="0" width="1044.9792" height="618.31838"/>
    </clipPath>
  </defs>
  <g id="b" data-name="Layer 1">
    <g>
      <rect class="l" x="0" width="1044.9792" height="618.31838"/>
      <g class="n">
        <rect class="l" x="0" width="1044.9792" height="618.31838"/>
      </g>
    </g>
  </g>
  <g id="d" data-name="Layer 2">
    <rect class="j" width="1042.0117" height="618.31838"/>
    <g>
      <ellipse class="o" cx="235.62806" cy="491.9969" rx="27.60525" ry="88.5619" transform="translate(-79.89943 46.99809) rotate(-9.74786)"/>
      <path class="m" d="M388.87798,91.30019h208.51899c29.17457,0,52.82518,23.65106,52.82518,52.82564h0c0,27.2956-20.70417,49.75245-47.2644,52.53149v28.09581l-29.59659-27.80279h-184.48318c-29.17435,0-52.82496-23.65016-52.82496-52.82451h0c0-29.17457,23.65061-52.82564,52.82496-52.82564Z"/>
      <g>
        <line class="e" x1="590.44656" y1="133.00448" x2="395.82862" y2="133.00448"/>
        <line class="e" x1="590.44656" y1="155.24649" x2="395.82862" y2="155.24649"/>
      </g>
      <g>
        <path class="i" d="M254.93639,537.3939l64.4309-45.05875,104.05673,16.51675,156.91106-91.66889-18.16868-47.0735,104.4975-68.36867c13.24273-9.86884,16.59944-28.29823,7.68646-42.20245l-4.82383-7.52493-192.42245,94.97251h-119.74775l-137.91665,63.59025-2.67376,3.48119c-18.14586,73.89444,38.17046,123.33648,38.17046,123.33648Z"/>
        <path class="h" d="M332.657,445.31904v-.00023c40.0788-20.21415,70.75935-55.17994,85.59142-97.54663"/>
        <path class="k" d="M378.58125,425.83551l16.08886,18.949c8.34411,9.8275,21.54211,14.06891,34.04901,10.94196h.00023c4.1463-1.03652,8.05945-2.84817,11.53229-5.33961l294.13865-210.99303c8.28402-5.94236,11.10553-16.97492,6.69128-26.16442h-.00023c-2.42728-5.05314-6.77375-8.92653-12.07201-10.75806l-36.84906-12.73802c-6.3994-2.2122-13.47271-1.20393-18.99916,2.70787l-291.1346,206.07409c-8.94393,6.33072-10.53734,18.9673-3.44527,27.32022Z"/>
        <polygon class="l" points="384.45696 404.57287 680.05822 194.79122 725.82884 211.95523 411.15636 436.04007 384.45696 404.57287"/>
        <path class="i" d="M482.88513,368.45782l36.33712,85.06232-75.15191,39.64075-7.43275-35.51139,26.42716-13.21358-2.33126-27.19823c-1.62956-19.01068,6.76516-37.49632,22.15164-48.77964v-.00023Z"/>
        <path class="i" d="M549.77878,332.94644l36.33712,85.06232-75.15191,39.64075-7.43275-35.51139,26.42716-13.21358-2.33126-27.19845c-1.62956-19.01045,6.76516-37.49632,22.15164-48.77964h0Z"/>
        <path class="i" d="M637.65064,311.04602l-35.71268,85.32642-59.02893,1.77369,44.31412-69.01096c12.50352-14.41231,31.61382-21.26761,50.4275-18.08915h0Z"/>
        <line class="h" x1="498.57615" y1="403.14348" x2="519.22226" y2="453.52015"/>
        <line class="h" x1="561.34066" y1="356.89617" x2="577.62156" y2="397.51989"/>
        <path class="i" d="M307.8054,418.83472h0c43.97501-9.00696,82.74529-34.71276,108.15966-71.71319l16.54341-24.08528,23.12354-4.95509h0c6.94838,15.28617,24.63359,22.47425,40.27581,16.3699l5.97173-2.33036-12.38762-58.63516h-108.18609l-89.19145,106.53417,15.69102,38.81501Z"/>
      </g>
      <g>
        <rect class="k" x="764.98921" y="120.64242" width="27.47669" height="6.86812" transform="translate(-7.01625 190.54642) rotate(-13.88839)"/>
        <path class="k" d="M761.31809,110.90142l2.42366,9.80265,26.67342-6.59504-2.42366-9.80265c8.95003-7.5665,12.87109-19.48127,10.02473-30.99277-4.09095-16.5459-20.87948-26.67974-37.42538-22.58879-16.5477,4.0914-26.67703,20.88107-22.58585,37.42696,2.84613,11.5115,11.86823,20.22612,23.31309,22.74965ZM762.23961,57.39328c12.8677-3.18162,25.93014,4.69845,29.11244,17.56796,2.36018,9.54623-1.27102,19.45167-9.24621,25.23476l-1.87107,1.35823,1.86316,7.53509-3.33412.82438-4.94606-20.00314,3.33435-.82438-1.64876-6.66824-13.33693,3.29775,1.64876,6.66824,3.33254-.82393,4.94583,20.00314-3.33231.82393-1.86316-7.53509-2.29015-.32939c-9.74956-1.40048-17.57631-8.47311-19.93672-18.01912-3.18208-12.86973,4.70093-25.92856,17.56841-29.11018Z"/>
      </g>
      <g>
        <path class="k" d="M437.35354,195.50467c0-3.81759-3.09465-6.91223-6.91223-6.91223s-6.91607,3.09465-6.91607,6.91223,3.09849,6.91223,6.91607,6.91223,6.91223-3.09465,6.91223-6.91223Z"/>
        <path class="k" d="M423.52523,250.80932h6.91607v-20.73964h3.45521v20.73964h6.91223v-38.02226h6.91223v-6.91314h-20.7367c-3.81149,0-6.91427,3.10075-6.91427,6.91314v17.28262h3.45521v20.73964Z"/>
        <path class="k" d="M499.57155,195.50241c0-3.81962-3.09849-6.91314-6.91427-6.91314-3.81759,0-6.91223,3.09352-6.91223,6.91314,0,3.81759,3.09465,6.91336,6.91223,6.91336,3.81578,0,6.91427-3.09578,6.91427-6.91336Z"/>
        <path class="k" d="M496.11453,205.87167h-20.73874v6.91336h6.9163v38.02339h6.9102v-20.73987h3.45499v20.73987h6.91427v-20.73987h3.45725v-17.28352c0-3.81239-3.103-6.91336-6.91427-6.91336Z"/>
        <circle class="k" cx="461.54929" cy="195.50467" r="6.91223"/>
        <path class="k" d="M451.1823,212.78706v13.8265h3.45476v24.19576h13.82447v-24.19576h3.45702v-13.8265c0-3.81239-3.10075-6.91314-6.91404-6.91314h-6.9102c-3.81352,0-6.91201,3.10075-6.91201,6.91314Z"/>
      </g>
      <g>
        <path class="g" d="M511.1183,293.30049c1.85977-88.33861,107.83298-170.32955,221.07989-175.08877"/>
        <polygon class="g" points="705.74324 131.87488 733.35535 118.51378 699.18908 110.20288 705.74324 131.87488"/>
      </g>
      <g>
        <path class="g" d="M405.46251,251.04744c-29.60676-32.89095-69.29924-60.13052-113.84989-74.97343"/>
        <polygon class="g" points="313.26949 196.5073 290.41705 176.04487 325.55002 177.48578 313.26949 196.5073"/>
      </g>
      <g>
        <line class="f" x1="516.99243" y1="172.3791" x2="516.99334" y2="185.62882"/>
        <line class="f" x1="523.61888" y1="179.00351" x2="510.36802" y2="179.00441"/>
      </g>
      <g>
        <line class="f" x1="550.74323" y1="234.63235" x2="550.74549" y2="258.23439"/>
        <line class="f" x1="562.54707" y1="246.43145" x2="538.94368" y2="246.43258"/>
      </g>
      <g>
        <line class="f" x1="723.42573" y1="147.27243" x2="723.42686" y2="160.52216"/>
        <line class="f" x1="730.05218" y1="153.89684" x2="716.80155" y2="153.89775"/>
      </g>
      <g>
        <line class="f" x1="825.65048" y1="38.9108" x2="825.65274" y2="62.51262"/>
        <line class="f" x1="837.45455" y1="50.70968" x2="813.85093" y2="50.71081"/>
      </g>
      <path d="M240.00469,192.5318l26.25004,6.18861-6.23267,26.43959-26.25004-6.18839,6.23267-26.43982ZM254.43914,144.93552l.98501-.77106c11.64909-.86821,20.816-6.53721,23.37183-17.37863l.09059-.3818c2.06265-8.74873-2.92453-16.55019-11.86529-18.65824-6.46649-1.52451-12.24032-.87792-17.24286.75344l4.93205-20.92286c6.56906-1.46373,12.76852-2.21062,21.89815-.05851,20.16287,4.75335,30.26079,22.39337,25.64209,41.98602l-.40394,1.71089c-4.44,18.83152-17.23405,26.25659-30.2818,28.80158l-7.66342,22.28741-15.21749-3.58738,5.75507-33.78084Z"/>
    </g>
  </g>
</svg>