<?xml version="1.0" encoding="UTF-8"?>
<svg id="a" data-name="Ebene 1" xmlns="http://www.w3.org/2000/svg" viewBox="0 0 985.14393 212.59843">
  <defs>
    <style>
      .b {
        fill: #04342c;
      }

      .c {
        fill: #8bbeb1;
      }
    </style>
  </defs>
  <g>
    <rect class="b" width="212.59843" height="212.59843" rx="11.33858" ry="11.33858"/>
    <g>
      <polygon class="c" points="116.40639 88.89907 140.30678 88.89907 140.30678 149.59926 149.60659 149.59926 149.60659 79.59926 116.40639 79.59926 116.40639 88.89907"/>
      <polygon class="c" points="168.00649 62.99916 98.00649 62.99922 98.00649 72.29903 158.70668 72.29897 158.70674 96.19936 168.00655 96.19936 168.00649 62.99916"/>
      <polygon class="c" points="86.10164 140.29946 73.70125 140.29946 73.70125 88.89907 107.10659 88.89907 107.10659 79.59926 73.70125 79.59926 64.40145 79.59926 64.40145 88.89907 64.40145 149.59926 86.10164 149.59926 97.60164 149.59926 131.50661 149.59926 131.50661 140.29946 97.60164 140.29946 86.10164 140.29946"/>
    </g>
  </g>
  <g>
    <path class="b" d="M248.28974,140.56163v-70h9.2998v60.7002h23.8999v9.2998h-33.19971Z"/>
    <path class="b" d="M294.48994,140.56163c-1.86719,0-3.5-.7002-4.90039-2.09961-1.3999-1.40039-2.09961-3.13281-2.09961-5.2002v-55.40039c0-2.06543.69971-3.7998,2.09961-5.19922,1.40039-1.40039,3.0332-2.10059,4.90039-2.10059h22.69971c2.13281,0,3.88281.7002,5.25,2.10059,1.36572,1.39941,2.05029,3.13379,2.05029,5.19922v55.40039c0,2.06738-.68457,3.7998-2.05029,5.2002-1.36719,1.39941-3.11719,2.09961-5.25,2.09961h-22.69971ZM300.18964,131.36144h11.30029c1.13281,0,2.0498-.36523,2.75-1.09961.69971-.73242,1.0498-1.63281,1.0498-2.7002v-44c0-1.13281-.3501-2.0498-1.0498-2.75-.7002-.7002-1.61719-1.0498-2.75-1.0498h-11.30029c-.93408,0-1.75.34961-2.44971,1.0498-.7002.7002-1.05029,1.61719-1.05029,2.75v44c0,1.06738.3501,1.96777,1.05029,2.7002.69971.73438,1.51562,1.09961,2.44971,1.09961Z"/>
    <path class="b" d="M339.08955,140.56163c-2,0-3.69971-.7002-5.1001-2.09961-1.3999-1.40039-2.09961-3.10059-2.09961-5.10059v-55.69922c0-1.93359.69971-3.60059,2.09961-5,1.40039-1.40039,3.1001-2.10059,5.1001-2.10059h22.7002c2,0,3.69971.7002,5.1001,2.10059,1.3999,1.39941,2.09961,3.06641,2.09961,5v15.59961l-9.2998-2.09961v-7.80078c0-1-.3501-1.84961-1.0498-2.5498-.7002-.7002-1.55029-1.0498-2.55029-1.0498h-11.2998c-1,0-1.8501.34961-2.55029,1.0498-.69971.7002-1.0498,1.5498-1.0498,2.5498v44.30078c0,1,.3501,1.84961,1.0498,2.5498.7002.7002,1.55029,1.0498,2.55029,1.0498h11.2998c1,0,1.8501-.34961,2.55029-1.0498.69971-.7002,1.0498-1.5498,1.0498-2.5498v-9.7002h-9.2002l2.1001-9.2998h16.3999v24.69922c0,2-.69971,3.7002-2.09961,5.10059-1.40039,1.39941-3.1001,2.09961-5.1001,2.09961h-22.7002Z"/>
    <path class="b" d="M381.38935,140.56163l24.19971-60.7002h-24.19971v-9.2998h37.19971l-27.8999,70h-9.2998Z"/>
    <path class="b" d="M425.78779,119.76183v-9.40039h28.1001v9.40039h-28.1001Z"/>
    <path class="b" d="M471.28681,140.56163c-1.86719,0-3.53418-.7002-5-2.09961-1.46729-1.40039-2.19971-3.10059-2.19971-5.10059v-55.59961c0-1.93262.73242-3.61523,2.19971-5.0498,1.46582-1.43262,3.13281-2.15039,5-2.15039h22.7002c2.06543,0,3.78271.71777,5.1499,2.15039,1.36572,1.43457,2.0498,3.11719,2.0498,5.0498v13l-9.2998,2.09961v-9.39941c0-.93262-.31738-1.76562-.9502-2.5-.63428-.7334-1.48438-1.10059-2.5498-1.10059h-11.3999c-.93457,0-1.76709.36719-2.5,1.10059-.73438.73438-1.1001,1.56738-1.1001,2.5v44.2002c0,1.06641.36572,1.93359,1.1001,2.59961.73291.66699,1.56543,1,2.5,1h11.3999c1.06543,0,1.91553-.33301,2.5498-1,.63281-.66602.9502-1.5332.9502-2.59961v-7.30078l9.2998-2.19922v15.19922c0,2-.68408,3.7002-2.0498,5.10059-1.36719,1.39941-3.08447,2.09961-5.1499,2.09961h-22.7002Z"/>
    <path class="b" d="M514.58662,140.56163c-1.86719,0-3.5-.7002-4.90039-2.09961-1.3999-1.40039-2.09961-3.13281-2.09961-5.2002v-55.40039c0-2.06543.69971-3.7998,2.09961-5.19922,1.40039-1.40039,3.0332-2.10059,4.90039-2.10059h22.69971c2.13281,0,3.88281.7002,5.25,2.10059,1.36572,1.39941,2.05029,3.13379,2.05029,5.19922v55.40039c0,2.06738-.68457,3.7998-2.05029,5.2002-1.36719,1.39941-3.11719,2.09961-5.25,2.09961h-22.69971ZM520.28632,131.36144h11.30029c1.13281,0,2.0498-.36523,2.75-1.09961.69971-.73242,1.0498-1.63281,1.0498-2.7002v-44c0-1.13281-.3501-2.0498-1.0498-2.75-.7002-.7002-1.61719-1.0498-2.75-1.0498h-11.30029c-.93408,0-1.75.34961-2.44971,1.0498-.7002.7002-1.05029,1.61719-1.05029,2.75v44c0,1.06738.3501,1.96777,1.05029,2.7002.69971.73438,1.51562,1.09961,2.44971,1.09961Z"/>
    <path class="b" d="M551.98701,140.56163v-70h9.2998l18.6001,46.7002v-46.7002h9.2998v70h-9.2998l-18.6001-46.7002v46.7002h-9.2998Z"/>
    <path class="b" d="M602.58564,140.56163c-2,0-3.7002-.7002-5.1001-2.09961-1.3999-1.40039-2.1001-3.10059-2.1001-5.10059v-15.5l9.2998,2.10059v7.7002c0,1,.3501,1.84961,1.05029,2.5498.69971.7002,1.51562,1.0498,2.44971,1.0498h11.40039c1,0,1.84961-.34961,2.5498-1.0498s1.0498-1.5498,1.0498-2.5498v-17.60059c0-1-.34961-1.84961-1.0498-2.5498s-1.5498-1.0498-2.5498-1.0498h-17c-2,0-3.7002-.7002-5.1001-2.10059-1.3999-1.39941-2.1001-3.09961-2.1001-5.09961v-21.5c0-2,.7002-3.7002,2.1001-5.09961,1.3999-1.40039,3.1001-2.10059,5.1001-2.10059h22.69971c2,0,3.7002.7002,5.1001,2.10059,1.3999,1.39941,2.1001,3.09961,2.1001,5.09961v10.7998l-9.30029-2.2002v-2.89941c0-1-.34961-1.85059-1.0498-2.5498-.7002-.7002-1.5498-1.05078-2.5498-1.05078h-11.40039c-.93408,0-1.75.35059-2.44971,1.05078-.7002.69922-1.05029,1.5498-1.05029,2.5498v10.09961c0,1,.3501,1.85059,1.05029,2.5498.69971.7002,1.51562,1.05078,2.44971,1.05078h17.1001c2,0,3.7002.69922,5.1001,2.09961s2.1001,3.09961,2.1001,5.09961v29c0,2-.7002,3.7002-2.1001,5.10059-1.3999,1.39941-3.1001,2.09961-5.1001,2.09961h-22.69971Z"/>
    <path class="b" d="M647.88593,140.56163c-2,0-3.69971-.7002-5.1001-2.09961-1.3999-1.40039-2.09961-3.10059-2.09961-5.10059v-62.7998h9.2998v57.2002c0,.93457.3501,1.75,1.0498,2.4502.7002.7002,1.55029,1.0498,2.55029,1.0498h11.2998c1,0,1.8501-.34961,2.55029-1.0498.69971-.7002,1.0498-1.51562,1.0498-2.4502v-57.2002h9.2998v62.7998c0,2-.69971,3.7002-2.09961,5.10059-1.40039,1.39941-3.1001,2.09961-5.1001,2.09961h-22.7002Z"/>
    <path class="b" d="M684.18574,140.56163v-70h9.2998v60.7002h23.8999v9.2998h-33.19971Z"/>
    <path class="b" d="M730.88593,140.56163v-60.7002h-13.90039v-9.2998h37.1001v9.2998h-13.8999v60.7002h-9.2998Z"/>
    <path class="b" d="M787.28584,140.56163c-2,0-3.69971-.7002-5.1001-2.09961-1.3999-1.40039-2.09961-3.10059-2.09961-5.10059v-55.69922c0-1.93359.69971-3.60059,2.09961-5,1.40039-1.40039,3.1001-2.10059,5.1001-2.10059h22.7002c2,0,3.69971.7002,5.1001,2.10059,1.3999,1.39941,2.09961,3.06641,2.09961,5v15.59961l-9.2998-2.09961v-7.80078c0-1-.3501-1.84961-1.0498-2.5498-.7002-.7002-1.55029-1.0498-2.55029-1.0498h-11.2998c-1,0-1.8501.34961-2.55029,1.0498-.69971.7002-1.0498,1.5498-1.0498,2.5498v44.30078c0,1,.3501,1.84961,1.0498,2.5498.7002.7002,1.55029,1.0498,2.55029,1.0498h11.2998c1,0,1.8501-.34961,2.55029-1.0498.69971-.7002,1.0498-1.5498,1.0498-2.5498v-9.7002h-9.2002l2.1001-9.2998h16.3999v24.69922c0,2-.69971,3.7002-2.09961,5.10059-1.40039,1.39941-3.1001,2.09961-5.1001,2.09961h-22.7002Z"/>
    <path class="b" d="M829.58564,140.56163v-70h9.2998l13.8999,42.7002,13.8999-42.7002h9.30029v70h-9.30029v-41.59961l-9.2998,28.5h-9.2002l-9.2998-28.5v41.59961h-9.2998Z"/>
    <path class="b" d="M883.18671,140.56163v-70.09961h25.3999c2.06592,0,3.80029.7168,5.2002,2.14941,1.3999,1.43457,2.1001,3.11719,2.1001,5.05078v19.89941c1.33252.46777,2.43262,1.33496,3.2998,2.60059.86572,1.2666,1.2998,2.63379,1.2998,4.09961v29c0,2.06738-.69971,3.7998-2.09961,5.2002-1.40039,1.39941-3.1001,2.09961-5.1001,2.09961h-30.1001ZM892.58662,97.16222h10.30029c1,0,1.86523-.36621,2.59961-1.10059.73291-.73242,1.1001-1.56543,1.1001-2.5v-10.2002c0-1-.36719-1.84961-1.1001-2.5498-.73438-.7002-1.59961-1.0498-2.59961-1.0498h-10.30029v17.40039ZM892.58662,131.26183h15.1001c.93262,0,1.75-.34961,2.4502-1.0498.69971-.7002,1.0498-1.58301,1.0498-2.65039v-17.59961c0-.93262-.3501-1.76562-1.0498-2.5-.7002-.7334-1.51758-1.10059-2.4502-1.10059h-15.1001v24.90039Z"/>
    <path class="b" d="M928.6872,140.56163v-70h9.2998v26.60059h18.6001v-26.60059h9.19971v70h-9.19971v-34.09961h-18.6001v34.09961h-9.2998Z"/>
  </g>
</svg>