<?xml version="1.0" encoding="UTF-8"?>
<svg xmlns="http://www.w3.org/2000/svg" xmlns:xlink="http://www.w3.org/1999/xlink" viewBox="0 0 1042.0117 618.31838">
  <defs>
    <style>
      .e, .f, .g, .h, .i, .j, .k, .l, .m {
        fill: none;
        stroke-width: 2px;
      }

      .e, .h {
        stroke: #282d33;
      }

      .f, .g {
        stroke: #000;
      }

      .n, .o {
        fill: #8cbcb1;
      }

      .o {
        opacity: .3;
      }

      .g, .l {
        stroke-linecap: round;
        stroke-linejoin: round;
      }

      .h {
        stroke-dasharray: 2 2;
      }

      .h, .i, .k, .m {
        stroke-miterlimit: 10;
      }

      .i {
        stroke-dasharray: 2.04628 2.04628;
      }

      .i, .j, .l, .m {
        stroke: #080717;
      }

      .p {
        fill: #fff;
      }

      .k {
        stroke: #1d1d1b;
      }

      .q {
        fill: #c3c4d9;
      }

      .r {
        clip-path: url(#c);
      }

      .s {
        fill: #08342e;
      }
    </style>
    <clipPath id="c">
      <rect class="p" width="1044.9792" height="618.31838"/>
    </clipPath>
  </defs>
  <g id="b" data-name="Layer 1">
    <g>
      <rect class="p" width="1044.9792" height="618.31838"/>
      <g class="r">
        <rect class="p" width="1044.9792" height="618.31838"/>
      </g>
    </g>
  </g>
  <g id="d" data-name="Layer 2">
    <rect class="o" width="1042.0117" height="618.31838"/>
    <g>
      <circle class="q" cx="532.69904" cy="211.67329" r="101.31095" transform="translate(6.34832 438.67278) rotate(-45)"/>
      <g>
        <path class="s" d="M590.93437,258.6672v-5.92437c0-19.62937-15.91642-35.54578-35.54555-35.54578h-35.54763c-19.63122,0-35.5474,15.91642-35.5474,35.54578v5.92437h106.64058Z"/>
        <path class="s" d="M561.31297,175.7255c0,13.08794-10.61094,23.69703-23.69889,23.69703-13.08632,0-23.69726-10.60909-23.69726-23.69703,0-13.08632,10.61094-23.69726,23.69726-23.69726,13.08794,0,23.69889,10.61094,23.69889,23.69726Z"/>
      </g>
      <line class="h" x1="778.76252" y1="348.3983" x2="778.76252" y2="316.97297"/>
      <line class="h" x1="664.03847" y1="303.74055" x2="664.03847" y2="272.31546"/>
      <g>
        <path class="g" d="M747.12534,357.11248l-8.15432,8.24948c-9.68201,9.795-27.92145,9.12215-43.82143-2.55202-18.17391-13.34263-26.40487-35.99265-18.38739-50.59578l8.15363-8.25087c-8.01517,14.60359.21718,37.25291,18.39063,50.59462,15.89766,11.67394,34.1378,12.35072,43.81888,2.55456Z"/>
        <path class="g" d="M684.91582,303.96329c8.01586-14.6029,29.24053-15.62282,47.41305-2.28227,18.17021,13.34287,26.4058,35.99126,18.38948,50.59346-8.01609,14.6022-29.24145,15.62699-47.41189,2.28343-18.17345-13.34171-26.4058-35.99103-18.39063-50.59462Z"/>
      </g>
      <g>
        <path class="k" d="M634.99892,167.147c30.34311-33.70899,71.02279-61.62581,116.68148-76.83811"/>
        <polygon class="k" points="729.48512 111.25061 752.9057 90.27902 716.89892 91.756 729.48512 111.25061"/>
      </g>
      <g>
        <line class="j" x1="665.96209" y1="179.39214" x2="665.96325" y2="194.02005"/>
        <line class="j" x1="673.27801" y1="186.70551" x2="658.64872" y2="186.70667"/>
      </g>
      <g>
        <line class="j" x1="716.26057" y1="198.69203" x2="716.26312" y2="224.74913"/>
        <line class="j" x1="729.29248" y1="211.71838" x2="703.23352" y2="211.71954"/>
      </g>
      <g>
        <path class="m" d="M647.58141,221.52866s.8259.03566,2.2957.20074"/>
        <path class="i" d="M654.55419,222.42472c14.58368,2.65158,47.79416,12.98213,57.93671,52.5671"/>
        <path class="m" d="M713.05214,277.31785c.16902.7444.33017,1.49967.48276,2.26445"/>
      </g>
      <g>
        <path class="m" d="M363.73821,248.4626s.54365-.62307,1.59044-1.66754"/>
        <path class="i" d="M368.79269,243.57622c11.17868-9.73411,39.98785-29.21969,77.23821-12.41903"/>
        <path class="m" d="M448.19787,232.17133c.68721.33295,1.37742.67887,2.07019,1.03729"/>
      </g>
      <g>
        <path class="n" d="M434.77142,397.47217l34.23134-34.42375,40.44606,1.14959,3.8697-3.92157c20.5532-20.82873,51.16467-28.1523,78.91918-18.8808h.00023c18.2061,6.08182,35.9005,13.59918,52.91695,22.48169l103.99966,54.28627c6.88248,3.59278,8.40485,12.77814,3.04936,18.39897h0c-13.45308,14.11945-34.40198,18.10769-52.10194,9.91911l-66.83658-30.9208.34314,17.18177c.89953,45.04603-15.46492,88.73039-45.73903,122.09855l-13.61377,16.16555s-138.46253-103.94617-139.48431-173.53458Z"/>
        <path class="n" d="M562.24584,576.86746h-.00023c-17.51125,3.2126-34.18433-8.7723-36.71945-26.39446l-12.9386-89.94342c-1.74071-12.1002,6.11146-23.50601,18.03615-26.19881h0c12.51396-2.82593,24.9742,4.93455,27.95711,17.41192l22.8665,95.64644c3.23066,13.51328-5.53562,26.97122-19.20148,29.47832Z"/>
        <path class="n" d="M532.01548,554.30057l-28.92494-2.32256c-16.73791-1.34385-29.81683-15.00948-30.42531-31.79046l-3.66132-100.98873c-.03612-12.22477,9.32961-22.42403,21.51316-23.42775h0c12.78578-1.05304,24.04226,8.36896,25.25621,21.14039l16.24219,137.38912Z"/>
        <path class="n" d="M481.72858,501.08701l-21.55252-2.15655c-14.60683-1.4617-25.86238-13.5325-26.30068-28.20578l-3.12808-104.7422c-.03635-12.22199,7.52407-22.41338,17.36608-23.40993h0c10.32847-1.04563,19.42746,8.38077,20.41544,21.14965l13.19977,137.36481Z"/>
        <path class="n" d="M450.21712,473.61729l-11.96799-1.58534c-17.06369-2.26028-29.80247-16.82868-29.76612-34.04148l.18153-86.13786c.31559-10.88462,7.33861-19.74513,16.13151-20.35223h0c9.22727-.63696,17.06184,8.01632,17.57793,19.41542l7.84313,122.70148Z"/>
        <path class="l" d="M526.33561,554.361c-.34638-1.26119-.61821-2.5585-.80946-3.88799l-12.9386-89.94342c-1.74071-12.1002,6.11146-23.50601,18.03615-26.19881h0c12.51396-2.82593,24.9742,4.93455,27.95711,17.41192l22.8665,95.64644"/>
        <path class="l" d="M471.91482,499.48847l-2.9109-80.28966c-.03612-12.22477,9.32961-22.42403,21.51316-23.42775h0c12.78578-1.05304,24.04226,8.36896,25.25621,21.14039l2.88265,24.38331"/>
        <path class="l" d="M433.87537,470.72468l-3.12808-104.7422c-.03635-12.22199,7.52407-22.41338,17.36608-23.40993h0c10.32847-1.04563,19.42746,8.38077,20.41544,21.14965l4.17626,43.46092"/>
        <path class="l" d="M632.64348,414.10891l-20.96418,5.90168c-36.08063,10.15736-69.88478-2.10121-90.42456-32.79094l-4.1193-6.15499"/>
      </g>
      <g>
        <path class="f" d="M848.56233,95.10798c8.66602-19.40408-.03844-42.15806-19.44275-50.82408-19.40408-8.66579-42.15806.03867-50.82408,19.44275-6.15638,13.7851-3.51174,29.24168,5.47936,40.15247l-3.39482,7.60164,31.22967,13.94718,3.39482-7.60164c14.12593-.58649,27.40118-8.93322,33.55779-22.71832Z"/>
        <line class="f" x1="771.24609" y1="121.44849" x2="810.28324" y2="138.88264"/>
        <line class="f" x1="797.73825" y1="114.55073" x2="811.68543" y2="83.32106"/>
        <line class="f" x1="803.87819" y1="79.83432" x2="819.49291" y2="86.80779"/>
        <path class="f" d="M793.91046,70.70036c4.81484-10.78089,17.45476-15.61634,28.23565-10.8015"/>
      </g>
      <g>
        <path class="e" d="M356.83466,48.79381h110.29796c29.90018,0,54.13901,24.2393,54.13901,54.13924h0c0,27.97447-21.21911,50.99009-48.43992,53.83824v28.79435l-30.33269-28.49428h-85.66436c-29.90018,0-54.13878-24.23814-54.13878-54.13832h0c0-29.89995,24.2386-54.13924,54.13878-54.13924Z"/>
        <g>
          <line class="e" x1="460.00934" y1="91.53511" x2="363.95817" y2="91.53511"/>
          <line class="e" x1="460.00934" y1="114.33054" x2="363.95817" y2="114.33054"/>
        </g>
      </g>
      <g>
        <path class="e" d="M233.14984,357.95991c31.04236,31.04213,81.37187,31.04213,112.41423,0,31.04236-31.04236,31.04236-81.3721,0-112.41423-31.04236-31.04236-81.37187-31.04236-112.41423,0-31.04213,31.04213-31.04213,81.37187,0,112.41423ZM322.94067,268.16907c18.54762,18.54762,18.54762,48.6196,0,67.16722-18.54808,18.54831-48.62006,18.54831-67.16768.00046-18.54808-18.54808-18.54808-48.62006,0-67.16814,18.54762-18.54762,48.6196-18.54762,67.16768.00046Z"/>
        <path class="e" d="M233.14984,357.95991c.348.34777.71082.67077,1.06346,1.01043l22.62293-22.62293c-.35611-.3348-.71545-.66266-1.06322-1.01067-18.54808-18.54808-18.54808-48.62006,0-67.16814,6.2094-6.2094,13.71263-10.3287,21.64051-12.38059l-8.27981-30.89973c-13.18148,3.45432-25.65284,10.32638-35.98385,20.6574-31.04213,31.04213-31.04213,81.37187,0,112.41423Z"/>
        <path class="e" d="M304.01218,377.22252l-5.70488-28.82422c-14.45934,2.76133-29.94579-1.2429-41.40995-11.99253l-22.62293,22.62293c19.30567,18.57818,45.67397,25.51253,70.24575,20.76089l-.508-2.56707Z"/>
      </g>
      <g>
        <path class="g" d="M794.33441,223.29947l9.67368,6.40088c11.4857,7.59979,14.36094,25.6239,5.98967,43.485-9.56694,20.41521-30.19215,32.88031-46.07221,27.84504l-9.67483-6.39972c15.88006,5.03272,36.50412-7.43354,46.07082-27.84805,8.37104-17.85902,5.49973-35.88429-5.98712-43.48315Z"/>
        <path class="g" d="M754.2507,294.63067c-15.8796-5.03341-20.99405-25.65793-11.42874-46.07152,9.56809-20.41173,30.19076-32.881,46.0699-27.8469,15.87891,5.03388,20.99822,25.65793,11.42966,46.07036-9.56671,20.41451-30.19076,32.88077-46.07082,27.84805Z"/>
      </g>
    </g>
  </g>
</svg>