<?xml version="1.0" encoding="UTF-8"?>
<svg xmlns="http://www.w3.org/2000/svg" xmlns:xlink="http://www.w3.org/1999/xlink" viewBox="0 0 1042.0117 618.31838">
  <defs>
    <style>
      .e, .f {
        stroke: #000;
      }

      .e, .f, .g, .h {
        fill: none;
        stroke-width: 2px;
      }

      .i, .j {
        fill: #8cbcb1;
      }

      .j {
        opacity: .3;
      }

      .f {
        stroke-linecap: round;
        stroke-linejoin: round;
      }

      .g {
        stroke: #080717;
      }

      .k {
        fill: #fff;
      }

      .h {
        stroke: #282d33;
        stroke-miterlimit: 10;
      }

      .l {
        fill: #c3c4d9;
      }

      .m {
        clip-path: url(#c);
      }

      .n {
        fill: #08342e;
      }
    </style>
    <clipPath id="c">
      <rect class="k" x="0" width="1044.9792" height="618.31838"/>
    </clipPath>
  </defs>
  <g id="b" data-name="Layer 1">
    <g>
      <rect class="k" x="0" width="1044.9792" height="618.31838"/>
      <g class="m">
        <rect class="k" x="0" width="1044.9792" height="618.31838"/>
      </g>
    </g>
  </g>
  <g id="d" data-name="Layer 2">
    <rect class="j" width="1042.0117" height="618.31838"/>
    <g>
      <g>
        <path class="l" d="M329.96578,245.72168l40.41786-12.68679c-1.87104-4.66586-3.2204-12.52288-.74262-23.4606,3.05604-13.48979,15.73442-26.81017,3.57458-54.66105-14.19766-32.51938-53.05408-24.1136-56.65598-22.98302l-.00407-.0127s-.03666.0139-.0999.03786c-.06569.01629-.10379.02612-.10379.02612l.00359.0127c-4.29395,1.34792-40.29157,16.43797-33.35832,51.23792,5.93758,29.80388,23.95328,33.48964,34.17043,42.81297,8.28429,7.55964,11.66716,14.77853,12.79822,19.67659Z"/>
        <path d="M330.37687,239.03198h46.95165v20.61977c0,1.93617-1.57192,3.50809-3.50809,3.50809h-39.93534c-1.93624,0-3.50822-1.57198-3.50822-3.50822v-20.61964h0Z" transform="translate(-58.95787 117.4983) rotate(-17.42663)"/>
        <path d="M340.72768,253.048h32.75991v14.38722c0,1.35094-1.09679,2.44773-2.44773,2.44773h-27.86447c-1.35093,0-2.44771-1.09678-2.44771-2.44771v-14.38723h0Z" transform="translate(-61.9137 118.94818) rotate(-17.42651)"/>
        <g>
          <line class="e" x1="341.44363" y1="235.07823" x2="330.89794" y2="201.48171"/>
          <line class="e" x1="354.88214" y1="230.86" x2="344.33645" y2="197.26348"/>
          <line class="e" x1="320.81882" y1="204.64532" x2="354.4156" y2="194.09964"/>
        </g>
      </g>
      <path class="i" d="M689.28588,434.2131s-121.57224-19.62794-87.83725-106.93418c16.22925-42.01021,86.87993-51.55903,124.11812-36.28278,23.03502,9.44937,50.60266,44.875,46.78366,66.83455-5.17435,29.74565-25.78191,47.73907-64.92756,50.60338-39.14254,2.86407-36.27751,15.27624-18.13696,25.77903Z"/>
      <g>
        <g>
          <line class="e" x1="474.47602" y1="443.86113" x2="476.31783" y2="451.90075"/>
          <line class="e" x1="474.47602" y1="443.86113" x2="476.31783" y2="451.90075"/>
          <line class="e" x1="452.45752" y1="464.32371" x2="460.3457" y2="466.74782"/>
          <line class="e" x1="459.16983" y1="493.62172" x2="465.21596" y2="488.00525"/>
          <line class="e" x1="487.9004" y1="502.4574" x2="486.05787" y2="494.41442"/>
          <line class="e" x1="509.92129" y1="481.99434" x2="502.03216" y2="479.57551"/>
          <line class="e" x1="503.20899" y1="452.69633" x2="497.1619" y2="458.31807"/>
        </g>
        <polygon points="557.86141 478.72482 518.68245 475.23028 479.50181 471.7343 499.70633 505.4837 519.90963 539.23502 527.00651 511.35874 550.93706 526.36803 559.78349 512.26143 535.85321 497.25357 557.86141 478.72482"/>
      </g>
      <path class="h" d="M446.18134,332.55992s16.31528-36.39733-26.35364-31.3737c-42.67281,5.01835-91.4248,19.91814-125.50777,12.54852-46.43931-10.0403-101.66397-99.15144-3.76508-144.33292,97.89169-45.18268,168.17645,15.0601,180.73048,43.92749,12.55023,28.8674,23.84186,95.38516-25.10399,119.23061Z"/>
      <g>
        <g>
          <path class="n" d="M647.98139,206.52619l12.56773,37.34651,19.2179-23.10164c5.56831-6.69362,7.99793-15.45453,6.67229-24.05992l-4.47271-29.03394-33.9852,38.84899Z"/>
          <path class="n" d="M610.54334,177.57923l-39.30741-2.76319,17.52087-24.41386c5.07682-7.07391,12.94415-11.63026,21.60637-12.51306l29.22465-2.97885-29.04449,42.66895Z"/>
        </g>
        <path class="l" d="M630.2161,190.81789c-7.01185-5.42141-14.55088-9.69979-22.37819-13.09392,8.62217-21.81817,20.92654-43.73315,36.94588-64.45118,31.20305-40.35579,57.37052-51.73204,95.24517-64.47898-2.80249,39.86455-7.22628,68.05307-38.4294,108.40887-16.01982,20.71874-34.13161,38.14232-53.07781,51.9791-5.25583-6.72285-11.29405-12.94224-18.30566-18.36389Z"/>
        <path class="n" d="M628.9695,150.62027h13.95575v64.84954c0,.39931-.32419.72349-.72349.72349h-12.50883c-.39927,0-.72342-.32415-.72342-.72342v-64.84961h0Z" transform="translate(1026.85963 717.49922) rotate(-142.28862)"/>
        <path class="n" d="M681.58342,100.77483c-4.87889,6.30973-3.71856,15.37976,2.59113,20.25841,6.30973,4.87865,15.37976,3.7186,20.25841-2.59113,4.87889-6.30973,3.7186-15.37976-2.59113-20.25841-6.30973-4.87889-15.37976-3.7186-20.25841,2.59113Z"/>
      </g>
      <path class="f" d="M595.36895,218.91463c-38.41646,48.75103-64.72292,103.10631-79.43914,159.48144-5.03393-.79318-10.19079-1.21445-15.44758-1.21445-51.61773,0-93.93754,39.69657-98.16487,90.22206-21.55577,8.31975-36.85454,29.22445-36.85454,53.71451h-8.22462c-15.89856,0-28.78568,12.88736-28.78568,28.78568s12.88712,28.78545,28.78568,28.78545h179.94353c2.92661,0,4.66753-.33165,5.5453-.94175,2.72437.60123,5.54602.94175,8.45131.94175h121.31132c15.8988,0,28.78568-12.88664,28.78568-28.78545s-12.88688-28.78568-28.78568-28.78568h-8.22462c0-31.79545-25.77592-57.57161-57.57137-57.57161-2.8449,0-5.63421.22765-8.36744.62711-4.1056-35.14909-26.69682-64.63138-57.80381-78.48685,13.80682-53.35051,38.63955-104.79691,74.98344-150.91726"/>
      <g>
        <line class="g" x1="621.6522" y1="340.06588" x2="733.0013" y2="320.13792"/>
        <line class="g" x1="629.05317" y1="361.3238" x2="738.9753" y2="340.1174"/>
        <line class="g" x1="636.53685" y1="382.65552" x2="689.65036" y2="371.6483"/>
      </g>
      <g>
        <line class="f" x1="308.4148" y1="108.64264" x2="299.085" y2="78.83157"/>
        <line class="f" x1="278.11632" y1="118.90436" x2="268.26077" y2="104.844"/>
        <line class="f" x1="339.49378" y1="100.69168" x2="340.08516" y2="83.53145"/>
      </g>
    </g>
  </g>
</svg>